<svg xmlns="http://www.w3.org/2000/svg" viewBox="0 0 24 24" fill="currentColor">
  <path d="M21.7,11.3c-0.4-0.4-1-0.4-1.4,0L18,13.6V11c0-3.3-2.7-6-6-6s-6,2.7-6,6v2.6l-2.3-2.3c-0.4-0.4-1-0.4-1.4,0s-0.4,1,0,1.4l4,4C6.5,16.5,6.7,16.7,7,16.7s0.5-0.2,0.7-0.4l2.6-2.6V17c0,0.6,0.4,1,1,1s1-0.4,1-1v-3.3l2.6,2.6c0.2,0.2,0.5,0.4,0.7,0.4s0.5-0.2,0.7-0.4l4-4C22.1,12.3,22.1,11.7,21.7,11.3z M16,11v2.6l-3.3-3.3C12.9,10.1,13,9.8,13,9.5c0-0.8-0.7-1.5-1.5-1.5S10,8.7,10,9.5c0,0.3,0.1,0.6,0.3,0.8L7,13.6V11c0-2.2,1.8-4,4-4s4,1.8,4,4V11z"/>
</svg>